# xmcd
#
# Track frame offsets: 
#        150
#        13742
#        26495
#        35671
#        49639
#        54394
#        67300
#        78165
#        87386
#        105172
#        119251
#        130185
#        136852
#        159966
#        171425
#        187168
#        213802
#        228883
#        240217
#
# Disc length: 3516 seconds
#
# Revision: 0
# Processed by: cddbd v1.5.2PL0 Copyright (c) Steve Scherf et al.
# Submitted via: ExactAudioCopyFreeDBPlugin 1.0
#
DISCID=f10dba13
DTITLE=J.P. Cormier - Take 5: A Banjo Collection
DYEAR=2006
DGENRE=Bluegrass
TTITLE0=Train 45
TTITLE1=We Can Work It Out
TTITLE2=Banjoumusk
TTITLE3=Ole Miss
TTITLE4=Invention #8
TTITLE5=Little Sadie
TTITLE6=Rany Lynn Rag
TTITLE7=Twin Sisters
TTITLE8=The Tenor Set #1
TTITLE9=Midnight Flyer
TTITLE10=Les Barricades Mysterieuse
TTITLE11=The Flying Dutchman
TTITLE12=Angeline The Baker
TTITLE13=Nashville Blues
TTITLE14=Shady Grove
TTITLE15=The Tenor Set #2
TTITLE16=Monique's Hornpipe
TTITLE17=Leavin's Heavy On My Mind
TTITLE18=Graveyard Shift
EXTD=
EXTT0=
EXTT1=
EXTT2=
EXTT3=
EXTT4=
EXTT5=
EXTT6=
EXTT7=
EXTT8=
EXTT9=
EXTT10=
EXTT11=
EXTT12=
EXTT13=
EXTT14=
EXTT15=
EXTT16=
EXTT17=
EXTT18=
PLAYORDER=
